<svg id="Warstwa_1" data-name="Warstwa 1" xmlns="http://www.w3.org/2000/svg" viewBox="0 0 1600 410">
  <defs>
    <style>
      .cls-1 {
        fill: #773dbd;
      }
    </style>
  </defs>
  <g>
    <path class="cls-1" d="M291.62756,189.11808V298.0202c0,60.69125-52.75139,111.17055-120.816,111.17055C103.88561,409.19075,50,358.14452,50,297.45291V111.9798C50,51.28819,105.01983.80925,170.24467.80925c87.3506,0,119.11454,66.36269,119.11454,117.40892H219.59342c0-24.39091-16.45105-52.74774-48.78183-52.74774-26.088,0-49.34466,19.85-49.34466,43.10636V300.85592c0,23.25632,23.25662,43.67328,49.34466,43.67328,22.68941,0,51.05026-17.01431,51.05026-43.67328V253.21233H173.084V189.11808Z"/>
    <path class="cls-1" d="M351.16968,256.615,471.41439,6.48061H547.9858L426.03957,260.018H503.1779V174.93947h69.19882V260.018h30.062V325.8138h-30.062v77.70559H503.1779V325.8138H351.16968Z"/>
    <path class="cls-1" d="M955.78806,6.48069V403.51931h-67.497V260.018c0-78.27286,4.53723-152.00812,4.53723-152.00812L837.24481,233.35865H780.52348l-57.285-125.34878s6.23873,73.73526,6.23873,152.57541v142.934H661.98V6.48069h74.30294l72.60107,159.948,72.03415-159.948Z"/>
    <path class="cls-1" d="M1016.04884,286.11h69.76571l.56693,13.61131c1.13421,30.62927,23.2567,41.40485,42.53908,41.40485,30.62928,0,46.513-18.14816,46.513-41.97178V223.71728c0-15.87974-11.91382-28.92777-27.79356-28.92777h-53.31467v-53.315L1151.043,71.70916h-112.3048V6.48069H1238.39V59.799l-53.315,72.03047c34.59921,13.048,62.39277,44.81151,62.39277,91.32088v75.43677c0,61.25854-50.483,110.60363-115.14052,110.60363-68.63114,0-116.27838-45.37516-116.27838-115.14049Z"/>
    <path class="cls-1" d="M1416.14,268.52514h-39.70337V403.51931h-69.19879V6.48069h124.21862c57.285,0,99.82406,40.83756,99.82406,95.85774v70.89991c0,32.8977-17.58125,65.79175-48.21053,82.24242L1550,403.51931h-78.27288Zm44.2446-169.02243c0-14.74953-13.61532-26.65933-30.06235-26.65933h-53.88562V202.16209h53.88562c16.447,0,30.06235-11.9098,30.06235-26.65532Z"/>
  </g>
</svg>
