<svg xmlns="http://www.w3.org/2000/svg" width="141" height="43" viewBox="0 0 141 43">
  <g fill="#1D1D1B">
    <path d="M33.74,30.81 C33.69,30.95 32.88,33.73 30.92,36.59 C29.23,39.07 27.47,41.54 24.69,41.59 C21.97,41.64 21.09,39.97 17.98,39.97 C14.86,39.97 13.89,41.54 11.32,41.64 C8.64,41.74 6.6,38.96 4.9,36.49 C1.4,31.44 -1.27,22.22 2.32,16 C4.1,12.91 7.28,10.95 10.73,10.9 C13.36,10.85 15.84,12.67 17.44,12.67 C19.04,12.67 22.06,10.49 25.22,10.81 C26.55,10.87 30.27,11.34 32.66,14.84 C32.47,14.96 28.22,17.43 28.26,22.58 C28.33,28.74 33.67,30.78 33.74,30.81 Z M23.16,7.47 C24.58,5.75 25.54,3.36 25.28,0.98 C23.23,1.06 20.75,2.34 19.29,4.06 C17.97,5.58 16.82,8.02 17.13,10.35 C19.4,10.52 21.74,9.18 23.16,7.47 Z"/>
    <path d="M9.07 10.76L7.35 10.76 6.4 7.8 3.12 7.8 2.22 10.77.54 10.77 3.79.67 5.8.67 9.07 10.76zM6.12 6.55L5.27 3.91C5.18 3.64 5.01 3.01 4.76 2.01L4.73 2.01C4.63 2.44 4.47 3.07 4.25 3.91L3.41 6.55 6.12 6.55zM16.56 10.76L15.14 10.76 15.05 9.65 15.02 9.65C14.51 10.5 13.74 10.92 12.71 10.92 11.99 10.92 11.42 10.7 10.99 10.25 10.48 9.7 10.23 8.87 10.23 7.76L10.23 3.47 11.85 3.47 11.85 7.49C11.85 8.89 12.33 9.59 13.29 9.59 14.01 9.59 14.51 9.24 14.79 8.54 14.86 8.36 14.9 8.16 14.9 7.93L14.9 3.48 16.52 3.48 16.52 8.66C16.5 9.35 16.52 10.05 16.56 10.76zM22.21 4.69L20.43 4.69 20.43 8.23C20.43 9.13 20.74 9.58 21.37 9.58 21.66 9.58 21.9 9.56 22.09 9.51L22.13 10.74C21.81 10.86 21.39 10.92 20.87 10.92 20.23 10.92 19.73 10.73 19.37 10.34 19.01 9.95 18.83 9.3 18.83 8.38L18.83 4.71 17.77 4.71 17.77 3.5 18.83 3.5 18.83 2.17 20.42 1.69 20.42 3.5 22.2 3.5 22.2 4.69 22.21 4.69zM30.18 7.06C30.18 8.18 29.86 9.1 29.22 9.82 28.55 10.56 27.66 10.93 26.55 10.93 25.48 10.93 24.63 10.58 23.99 9.87 23.36 9.16 23.04 8.27 23.04 7.19 23.04 6.06 23.37 5.14 24.02 4.42 24.67 3.7 25.56 3.34 26.66 3.34 27.73 3.34 28.59 3.69 29.24 4.4 29.87 5.08 30.18 5.97 30.18 7.06zM28.5 7.11C28.5 6.44 28.35 5.87 28.07 5.39 27.73 4.81 27.25 4.52 26.62 4.52 25.97 4.52 25.48 4.81 25.14 5.39 24.85 5.87 24.71 6.45 24.71 7.14 24.71 7.81 24.85 8.38 25.14 8.86 25.49 9.44 25.98 9.73 26.61 9.73 27.23 9.73 27.71 9.44 28.06 8.85 28.35 8.36 28.5 7.78 28.5 7.11zM35.58 4.9C35.42 4.87 35.25 4.86 35.07 4.86 34.5 4.86 34.06 5.08 33.75 5.5 33.48 5.88 33.35 6.36 33.35 6.94L33.35 10.76 31.73 10.76 31.74 5.77C31.74 4.93 31.72 4.17 31.68 3.48L33.09 3.48 33.15 4.87 33.2 4.87C33.37 4.39 33.64 4.01 34.01 3.72 34.37 3.46 34.76 3.33 35.18 3.33 35.33 3.33 35.46 3.34 35.59 3.36L35.59 4.9 35.58 4.9zM43.2 3.48L41.36 8.53C40.48 10.92 39.66 12.46 38.89 13.15 38.32 13.66 37.73 13.96 37.11 14.06L36.72 12.7C37.09 12.59 37.45 12.4 37.81 12.13 38.24 11.8 38.58 11.38 38.83 10.86 38.91 10.71 38.95 10.6 38.95 10.53 38.95 10.46 38.92 10.35 38.86 10.19L36.22 3.49 38 3.49 39.38 7.55C39.51 7.92 39.65 8.4 39.81 8.99L39.84 8.99C39.93 8.67 40.07 8.19 40.25 7.54L41.48 3.49 43.2 3.49 43.2 3.48zM49.51 10.76L43.57 10.76 43.57 9.82 46.48 6C46.66 5.76 46.99 5.37 47.47 4.82L47.47 4.79 43.86 4.79 43.86 3.49 49.43 3.49 49.43 4.49 46.58 8.25C46.26 8.66 45.93 9.05 45.59 9.43L45.59 9.46 49.5 9.46 49.5 10.76 49.51 10.76zM57.35 7.06C57.35 8.18 57.03 9.1 56.39 9.82 55.72 10.56 54.83 10.93 53.72 10.93 52.65 10.93 51.8 10.58 51.16 9.87 50.53 9.16 50.21 8.27 50.21 7.19 50.21 6.06 50.54 5.14 51.19 4.42 51.84 3.7 52.73 3.34 53.84 3.34 54.91 3.34 55.77 3.69 56.42 4.4 57.04 5.08 57.35 5.97 57.35 7.06zM55.67 7.11C55.67 6.44 55.52 5.87 55.24 5.39 54.9 4.81 54.42 4.52 53.79 4.52 53.14 4.52 52.65 4.81 52.31 5.39 52.02 5.87 51.87 6.45 51.87 7.14 51.87 7.81 52.02 8.38 52.31 8.86 52.66 9.44 53.15 9.73 53.78 9.73 54.4 9.73 54.88 9.44 55.23 8.85 55.52 8.36 55.67 7.78 55.67 7.11zM68.55 3.48L66.27 10.76 64.79 10.76 63.85 7.6C63.61 6.81 63.42 6.03 63.27 5.25L63.24 5.25C63.1 6.05 62.9 6.83 62.66 7.6L61.66 10.76 60.16 10.76 58 3.48 59.66 3.48 60.48 6.94C60.68 7.76 60.84 8.54 60.97 9.28L61 9.28C61.12 8.67 61.32 7.9 61.6 6.96L62.63 3.48 63.95 3.48 64.94 6.88C65.18 7.71 65.37 8.51 65.52 9.28L65.57 9.28C65.68 8.53 65.84 7.73 66.06 6.88L66.94 3.48 68.55 3.48 68.55 3.48zM75.15 10.76L73.7 10.76 73.58 9.92 73.54 9.92C73.04 10.59 72.33 10.92 71.41 10.92 70.72 10.92 70.17 10.7 69.75 10.26 69.37 9.86 69.18 9.37 69.18 8.78 69.18 7.89 69.55 7.21 70.3 6.74 71.04 6.27 72.09 6.04 73.44 6.05L73.44 5.92C73.44 4.96 72.94 4.48 71.93 4.48 71.21 4.48 70.58 4.66 70.03 5.02L69.7 3.96C70.38 3.54 71.21 3.33 72.2 3.33 74.11 3.33 75.06 4.33 75.06 6.34L75.06 9.02C75.05 9.75 75.08 10.33 75.15 10.76zM73.48 8.26L73.48 7.14C71.68 7.11 70.78 7.6 70.78 8.61 70.78 8.99 70.89 9.27 71.1 9.46 71.31 9.65 71.57 9.74 71.89 9.74 72.25 9.74 72.58 9.63 72.89 9.4 73.19 9.18 73.38 8.89 73.45 8.54 73.47 8.47 73.48 8.37 73.48 8.26zM83.37 10.76L81.75 10.76 81.75 6.58C81.75 5.29 81.26 4.65 80.28 4.65 79.8 4.65 79.41 4.83 79.11 5.18 78.81 5.53 78.66 5.95 78.66 6.43L78.66 10.76 77.04 10.76 77.04 5.56C77.04 4.92 77.02 4.23 76.98 3.48L78.4 3.48 78.47 4.6 78.51 4.6C78.7 4.25 78.98 3.96 79.35 3.73 79.79 3.46 80.28 3.33 80.82 3.33 81.5 3.33 82.06 3.55 82.51 3.99 83.07 4.53 83.35 5.33 83.35 6.4L83.35 10.76 83.37 10.76zM91.23 3.48L89.39 8.53C88.51 10.92 87.69 12.46 86.92 13.15 86.35 13.66 85.76 13.96 85.14 14.06L84.75 12.7C85.12 12.59 85.48 12.4 85.84 12.13 86.27 11.8 86.61 11.38 86.86 10.86 86.94 10.71 86.98 10.6 86.98 10.53 86.98 10.46 86.95 10.35 86.89 10.19L84.25 3.49 86.03 3.49 87.41 7.55C87.54 7.92 87.68 8.4 87.84 8.99L87.87 8.99C87.96 8.67 88.1 8.19 88.28 7.54L89.51 3.49 91.23 3.49 91.23 3.48zM5.68 25.9C5.68 26.58 5.43 27.12 4.93 27.53 4.43 27.94 3.74 28.14 2.86 28.14 2.03 28.14 1.33 27.97.75 27.65L1.09 26.45C1.65 26.79 2.24 26.96 2.87 26.96 3.7 26.96 4.11 26.66 4.11 26.05 4.11 25.78 4.02 25.56 3.84 25.38 3.66 25.21 3.34 25.03 2.88 24.86 1.58 24.38.93 23.68.93 22.76.93 22.13 1.17 21.61 1.65 21.19 2.13 20.77 2.76 20.56 3.55 20.56 4.27 20.56 4.88 20.71 5.39 20.99L5.05 22.14C4.58 21.86 4.09 21.72 3.57 21.72 3.23 21.72 2.97 21.8 2.78 21.96 2.59 22.12 2.5 22.32 2.5 22.57 2.5 22.82 2.6 23.02 2.8 23.18 2.97 23.33 3.3 23.5 3.79 23.67 5.05 24.18 5.68 24.91 5.68 25.9zM14.06 24.27C14.06 25.51 13.73 26.49 13.06 27.21 12.46 27.85 11.72 28.17 10.83 28.17 9.87 28.17 9.18 27.83 8.76 27.14L8.73 27.14 8.73 30.98 7.1 30.98 7.1 23.13C7.1 22.35 7.08 21.55 7.04 20.73L8.46 20.73 8.55 21.88 8.58 21.88C9.12 21.01 9.94 20.58 11.04 20.58 11.9 20.58 12.62 20.92 13.19 21.6 13.77 22.26 14.06 23.16 14.06 24.27zM12.41 24.33C12.41 23.62 12.25 23.04 11.93 22.58 11.58 22.1 11.11 21.86 10.52 21.86 10.12 21.86 9.76 21.99 9.43 22.26 9.11 22.52 8.89 22.87 8.79 23.3 8.74 23.5 8.72 23.66 8.72 23.79L8.72 25C8.72 25.53 8.88 25.98 9.21 26.34 9.53 26.7 9.96 26.89 10.48 26.89 11.09 26.89 11.56 26.66 11.9 26.19 12.24 25.71 12.41 25.09 12.41 24.33zM19.47 22.14C19.31 22.11 19.14 22.1 18.96 22.1 18.39 22.1 17.95 22.32 17.64 22.74 17.37 23.12 17.24 23.6 17.24 24.18L17.24 28 15.62 28 15.64 23.01C15.64 22.17 15.62 21.41 15.58 20.72L16.99 20.72 17.05 22.11 17.09 22.11C17.26 21.63 17.53 21.25 17.9 20.96 18.26 20.7 18.65 20.57 19.07 20.57 19.22 20.57 19.35 20.58 19.47 20.6L19.47 22.14zM26.02 28L20.09 28 20.09 27.06 23 23.24C23.18 23 23.51 22.61 23.99 22.06L23.99 22.03 20.38 22.03 20.38 20.73 25.95 20.73 25.95 21.73 23.1 25.49C22.78 25.9 22.45 26.29 22.11 26.67L22.11 26.7 26.02 26.7 26.02 28zM33.19 24.01C33.19 24.3 33.17 24.54 33.13 24.74L28.27 24.74C28.29 25.46 28.52 26.01 28.97 26.39 29.38 26.73 29.91 26.9 30.56 26.9 31.28 26.9 31.93 26.78 32.52 26.56L32.77 27.68C32.08 27.98 31.27 28.13 30.33 28.13 29.2 28.13 28.31 27.8 27.67 27.13 27.03 26.47 26.7 25.57 26.7 24.46 26.7 23.36 27 22.45 27.6 21.72 28.23 20.94 29.08 20.55 30.15 20.55 31.2 20.55 31.99 20.94 32.53 21.72 32.98 22.34 33.19 23.1 33.19 24.01zM31.65 23.59C31.66 23.11 31.56 22.7 31.34 22.35 31.06 21.9 30.63 21.68 30.05 21.68 29.52 21.68 29.09 21.9 28.76 22.34 28.49 22.69 28.33 23.11 28.28 23.6L31.65 23.6 31.65 23.59zM41.18 28L39.74 28 39.66 26.83 39.62 26.83C39.16 27.72 38.38 28.16 37.28 28.16 36.4 28.16 35.67 27.82 35.09 27.13 34.51 26.44 34.22 25.55 34.22 24.45 34.22 23.27 34.53 22.32 35.16 21.59 35.77 20.91 36.52 20.57 37.41 20.57 38.39 20.57 39.07 20.9 39.46 21.56L39.49 21.56 39.49 17.38 41.11 17.38 41.11 26.04C41.12 26.74 41.14 27.4 41.18 28zM39.5 24.92L39.5 23.71C39.5 23.5 39.49 23.33 39.46 23.2 39.37 22.81 39.18 22.48 38.88 22.22 38.58 21.96 38.22 21.82 37.8 21.82 37.2 21.82 36.73 22.06 36.38 22.54 36.04 23.02 35.86 23.63 35.86 24.38 35.86 25.1 36.02 25.68 36.35 26.13 36.7 26.61 37.17 26.85 37.76 26.85 38.29 26.85 38.71 26.65 39.03 26.25 39.35 25.89 39.5 25.44 39.5 24.92zM48.61 28L47.16 28 47.04 27.16 47 27.16C46.5 27.83 45.79 28.16 44.87 28.16 44.18 28.16 43.63 27.94 43.21 27.5 42.83 27.1 42.64 26.61 42.64 26.02 42.64 25.13 43.01 24.45 43.76 23.98 44.5 23.51 45.55 23.28 46.9 23.29L46.9 23.16C46.9 22.2 46.39 21.72 45.39 21.72 44.67 21.72 44.04 21.9 43.49 22.26L43.16 21.2C43.84 20.78 44.67 20.57 45.66 20.57 47.57 20.57 48.52 21.57 48.52 23.58L48.52 26.26C48.51 26.99 48.54 27.57 48.61 28zM46.94 25.49L46.94 24.37C45.14 24.34 44.24 24.83 44.24 25.84 44.24 26.22 44.34 26.5 44.55 26.69 44.76 26.88 45.02 26.97 45.34 26.97 45.7 26.97 46.03 26.86 46.34 26.63 46.64 26.4 46.83 26.12 46.9 25.77 46.93 25.7 46.94 25.6 46.94 25.49zM60.12 20.71L57.85 28 56.37 28 55.43 24.84C55.19 24.05 55 23.27 54.85 22.49L54.82 22.49C54.68 23.29 54.49 24.07 54.24 24.84L53.24 28 51.74 28 49.6 20.72 51.26 20.72 52.08 24.18C52.28 25 52.44 25.78 52.57 26.52L52.6 26.52C52.72 25.91 52.92 25.14 53.2 24.2L54.23 20.72 55.55 20.72 56.54 24.12C56.78 24.95 56.97 25.75 57.12 26.52L57.16 26.52C57.27 25.77 57.43 24.97 57.65 24.12L58.53 20.72 60.12 20.72 60.12 20.71zM66.4 20.91L66.09 22.14C65.68 21.94 65.21 21.84 64.68 21.84 63.97 21.84 63.41 22.08 62.99 22.55 62.58 23.02 62.37 23.63 62.37 24.36 62.37 25.13 62.59 25.74 63.02 26.19 63.45 26.64 64.01 26.86 64.68 26.86 65.18 26.86 65.67 26.76 66.15 26.56L66.38 27.77C65.85 28.02 65.18 28.14 64.37 28.14 63.26 28.14 62.38 27.8 61.72 27.13 61.06 26.46 60.73 25.55 60.73 24.43 60.73 23.31 61.08 22.37 61.79 21.65 62.5 20.93 63.45 20.56 64.65 20.56 65.33 20.56 65.91 20.68 66.4 20.91zM73.27 28L71.82 28 71.7 27.16 71.65 27.16C71.15 27.83 70.44 28.16 69.52 28.16 68.83 28.16 68.28 27.94 67.86 27.5 67.48 27.1 67.29 26.61 67.29 26.02 67.29 25.13 67.66 24.45 68.41 23.98 69.15 23.51 70.2 23.28 71.55 23.29L71.55 23.16C71.55 22.2 71.05 21.72 70.04 21.72 69.32 21.72 68.69 21.9 68.14 22.26L67.81 21.2C68.49 20.78 69.32 20.57 70.31 20.57 72.22 20.57 73.17 21.57 73.17 23.58L73.17 26.26C73.16 26.99 73.2 27.57 73.27 28zM71.59 25.49L71.59 24.37C69.79 24.34 68.89 24.83 68.89 25.84 68.89 26.22 68.99 26.5 69.2 26.69 69.41 26.88 69.67 26.97 69.99 26.97 70.35 26.97 70.68 26.86 70.99 26.63 71.29 26.4 71.48 26.12 71.55 25.77 71.58 25.7 71.59 25.6 71.59 25.49z" transform="translate(49 12)"/>
  </g>
</svg>
