<svg xmlns="http://www.w3.org/2000/svg" width="108" height="32" viewBox="0 0 108 32"><g fill="none" fill-rule="evenodd"><rect width="108" height="32" fill="#1A1A1A" fill-rule="nonzero" rx="4"/><path fill="#FFF" fill-rule="nonzero" d="M34.656 24l.672-1.692h4.14L40.14 24h1.68l-3.552-8.76h-1.716L33 24h1.656zm4.308-2.964h-3.132l1.56-3.96 1.572 3.96zm5.46 5.364v-3.108c.616.592 1.364.888 2.244.888.896 0 1.62-.316 2.172-.948.552-.64.828-1.472.828-2.496s-.276-1.856-.828-2.496c-.552-.64-1.276-.96-2.172-.96-.92 0-1.68.312-2.28.936l-.108-.756h-1.596l.12 1.26v7.68h1.62zm1.728-3.444c-.336 0-.654-.07-.954-.21-.3-.14-.542-.33-.726-.57v-2.892c.144-.232.368-.42.672-.564.304-.144.64-.216 1.008-.216.56 0 1.006.202 1.338.606.332.404.498.946.498 1.626 0 .68-.166 1.22-.498 1.62-.332.4-.778.6-1.338.6zm6.432 3.444v-3.108c.616.592 1.364.888 2.244.888.896 0 1.62-.316 2.172-.948.552-.64.828-1.472.828-2.496S57.552 18.88 57 18.24c-.552-.64-1.276-.96-2.172-.96-.92 0-1.68.312-2.28.936l-.108-.756h-1.596l.12 1.26v7.68h1.62zm1.728-3.444c-.336 0-.654-.07-.954-.21-.3-.14-.542-.33-.726-.57v-2.892c.144-.232.368-.42.672-.564.304-.144.64-.216 1.008-.216.56 0 1.006.202 1.338.606.332.404.498.946.498 1.626 0 .68-.166 1.22-.498 1.62-.332.4-.778.6-1.338.6zm8.844 1.224c1.36 0 2.516-.284 3.468-.852v-3.96H63.12v1.224h1.884v1.992c-.408.2-.904.3-1.488.3-.856 0-1.556-.296-2.1-.888-.528-.584-.792-1.364-.792-2.34 0-1.008.268-1.808.804-2.4.544-.6 1.284-.9 2.22-.9.864 0 1.672.232 2.424.696l.456-1.176c-1.024-.544-2.072-.816-3.144-.816-1.368 0-2.456.42-3.264 1.26-.8.824-1.2 1.936-1.2 3.336 0 1.36.384 2.456 1.152 3.288.776.824 1.804 1.236 3.084 1.236zm6.948 0c.416 0 .828-.084 1.236-.252a3.257 3.257 0 0 0 1.044-.672l.096.744h1.608l-.132-1.212v-2.772c0-.928-.246-1.616-.738-2.064-.492-.448-1.258-.672-2.298-.672-1 0-1.888.176-2.664.528l.324 1.152c.568-.304 1.232-.456 1.992-.456.6 0 1.036.118 1.308.354s.408.614.408 1.134v.156l-2.1.168c-1.616.144-2.424.808-2.424 1.992 0 .576.206 1.032.618 1.368.412.336.986.504 1.722.504zm.456-1.164c-.344 0-.618-.084-.822-.252a.814.814 0 0 1-.306-.66c0-.272.094-.478.282-.618.188-.14.49-.238.906-.294l1.668-.132v1.128c-.136.248-.362.448-.678.6a2.39 2.39 0 0 1-1.05.228zm7.08 1.164c.4 0 .74-.044 1.02-.132l-.18-1.188c-.104.064-.3.096-.588.096-.472 0-.708-.264-.708-.792V15h-1.668v7.164c-.016.648.158 1.146.522 1.494.364.348.898.522 1.602.522zm4.104 0c.4 0 .74-.044 1.02-.132l-.18-1.188c-.104.064-.3.096-.588.096-.472 0-.708-.264-.708-.792V15H79.62v7.164c-.016.648.158 1.146.522 1.494.364.348.898.522 1.602.522zm5.196 0c.816 0 1.616-.184 2.4-.552l-.348-1.14c-.616.312-1.232.468-1.848.468-.592 0-1.078-.168-1.458-.504-.38-.336-.594-.784-.642-1.344h4.644c.016-.144.024-.336.024-.576-.008-.984-.292-1.772-.852-2.364-.544-.592-1.272-.888-2.184-.888-1.008 0-1.816.316-2.424.948-.6.632-.9 1.464-.9 2.496 0 1.04.328 1.876.984 2.508.656.632 1.524.948 2.604.948zm1.152-4.008h-3.048c.04-.512.202-.918.486-1.218.284-.3.65-.45 1.098-.45.408 0 .746.152 1.014.456.268.304.418.708.45 1.212zM92.688 24v-4.5c.2-.304.52-.546.96-.726.44-.18.932-.27 1.476-.27V17.28c-.528 0-1.022.096-1.482.288-.46.192-.806.448-1.038.768l-.108-.876H90.9l.12 1.248V24h1.668zm4.344 2.58c.616 0 1.116-.18 1.5-.54.392-.368.772-1.016 1.14-1.944l2.712-6.636h-1.668l-1.884 4.848-1.656-4.848H95.46l2.544 6.612h.084l-.036.084c-.216.464-.408.78-.576.948-.168.168-.392.252-.672.252-.336 0-.668-.108-.996-.324l-.48 1.188c.504.248 1.072.368 1.704.36z"/><path fill="#C8102E" d="M21.223 6h-8.655C8.491 6 7 7.491 7 11.568v8.655c0 4.077 1.491 5.569 5.568 5.569h8.653c4.077 0 5.57-1.492 5.57-5.569v-8.655c0-4.077-1.49-5.568-5.568-5.568"/><path fill="#FFF" d="M15.635 17.478h.793l-.398-.926-.395.926zm-.196.467l-.235.539h-.536l1.14-2.586h.463l1.135 2.586h-.55l-.233-.54H15.44zm8.626.537h.518v-2.585h-.518v2.585zm-2.062-1.11h.955V16.9h-.955v-.53h1.386v-.472h-1.904v2.584h1.954v-.47h-1.436v-.642zm-2.059.305l-.587-1.78h-.428l-.588 1.78-.572-1.778h-.558l.902 2.586h.434l.589-1.699.588 1.699h.438l.9-2.586h-.545l-.573 1.778zm-6.067-.299c0 .421-.209.646-.588.646-.382 0-.592-.23-.592-.663v-1.462h-.525v1.48c0 .728.405 1.145 1.11 1.145.711 0 1.12-.425 1.12-1.167v-1.46h-.525v1.481zm-2.958-1.48h.525v2.587h-.525v-1.05H9.734v1.05h-.525v-2.587h.525v1.043h1.185v-1.043zm5.977-3.295A3.298 3.298 0 0 1 13.6 9.309h.466c0 1.56 1.27 2.829 2.829 2.829 1.56 0 2.829-1.27 2.829-2.83h.465a3.298 3.298 0 0 1-3.294 3.295"/><path fill="#FFF" fill-rule="nonzero" d="M35.633 11.05c.348 0 .665-.06.952-.177a2.124 2.124 0 0 0 1.213-1.26 2.73 2.73 0 0 0 .169-.976c0-.354-.057-.68-.169-.975a2.25 2.25 0 0 0-.475-.766 2.132 2.132 0 0 0-.738-.5 2.467 2.467 0 0 0-.952-.178c-.347 0-.664.06-.95.178a2.135 2.135 0 0 0-.736.5 2.25 2.25 0 0 0-.475.766 2.73 2.73 0 0 0-.168.975c0 .354.056.68.168.975a2.127 2.127 0 0 0 1.211 1.26c.286.119.603.178.95.178zm0-.555c-.253 0-.483-.042-.69-.127a1.459 1.459 0 0 1-.529-.366 1.643 1.643 0 0 1-.338-.584c-.08-.23-.119-.49-.119-.78 0-.291.04-.552.119-.783a1.64 1.64 0 0 1 .338-.586c.146-.16.323-.282.53-.368.206-.085.436-.128.69-.128.255 0 .486.043.692.128.207.086.383.209.528.368.146.16.258.355.337.586.08.231.119.492.119.782 0 .29-.04.55-.119.78-.08.23-.191.425-.337.585-.145.16-.32.281-.528.366a1.813 1.813 0 0 1-.693.127zM40.61 11c.347 0 .664-.057.95-.17.286-.113.532-.273.736-.48.205-.207.363-.455.475-.746.112-.29.169-.613.169-.967s-.056-.676-.169-.967c-.112-.29-.27-.54-.475-.747a2.107 2.107 0 0 0-.736-.482 2.56 2.56 0 0 0-.95-.17H38.84V11h1.769zm0-.518h-1.126V6.789h1.126c.253 0 .483.042.69.126.206.083.382.204.528.363.145.158.257.352.336.58.08.23.119.489.119.78 0 .29-.04.55-.119.778-.08.229-.191.422-.337.58a1.445 1.445 0 0 1-.527.36 1.825 1.825 0 0 1-.69.126zm3.904.518V8.835h.29c.053 0 .097.003.134.008a.308.308 0 0 1 .168.076c.02.02.044.042.068.068l1.633 1.878.053.056a.239.239 0 0 0 .058.043c.02.01.045.02.074.026.029.007.064.01.106.01h.554l-1.881-2.24a1.341 1.341 0 0 0-.145-.15.463.463 0 0 0-.162-.088.58.58 0 0 0 .13-.086c.041-.035.085-.078.13-.129l1.803-2.036h-.545a.38.38 0 0 0-.173.035.498.498 0 0 0-.14.117l-1.575 1.782a.39.39 0 0 1-.14.107.523.523 0 0 1-.2.032h-.24V6.27h-.637V11h.637zm4.494 0V9.027h.485a.44.44 0 0 1 .198.034.358.358 0 0 1 .122.114l1.228 1.69c.055.09.14.135.258.135h.567l-1.38-1.878a.676.676 0 0 0-.21-.201c.182-.042.345-.103.49-.185.144-.081.266-.18.366-.295.1-.116.176-.246.23-.391a1.36 1.36 0 0 0 .078-.469c0-.2-.034-.381-.102-.543a1.05 1.05 0 0 0-.315-.414 1.48 1.48 0 0 0-.54-.262 2.92 2.92 0 0 0-.775-.09H48.37V11h.637zm.67-2.439h-.67V6.776h.7c.367 0 .644.072.83.215.186.143.279.355.279.636a.964.964 0 0 1-.073.38.794.794 0 0 1-.216.295 1.004 1.004 0 0 1-.356.192 1.63 1.63 0 0 1-.494.067zm4.7 2.439V9.119l1.735-2.848h-.567c-.055 0-.1.016-.134.048a.422.422 0 0 0-.08.1l-1.08 1.839c-.044.075-.08.146-.109.214a3.91 3.91 0 0 0-.08.205 3.662 3.662 0 0 0-.08-.201 2.265 2.265 0 0 0-.11-.218L52.79 6.42a.41.41 0 0 0-.086-.106.2.2 0 0 0-.135-.043h-.561L53.74 9.12V11h.637zm3.85 0l1.205-3.607a1.39 1.39 0 0 0 .031-.11l.032-.128c.02.09.041.17.066.238L60.76 11h.574l1.475-4.729h-.498a.217.217 0 0 0-.14.046.206.206 0 0 0-.075.106l-.98 3.287a1.425 1.425 0 0 0-.043.184c-.01.066-.023.136-.036.208a3.223 3.223 0 0 0-.106-.392l-1.105-3.287a.234.234 0 0 0-.078-.109.22.22 0 0 0-.14-.043h-.185a.213.213 0 0 0-.14.048.241.241 0 0 0-.078.104L58.093 9.71c-.02.057-.037.12-.053.19l-.046.216a6.833 6.833 0 0 0-.041-.215 2.43 2.43 0 0 0-.048-.191l-.977-3.287a.21.21 0 0 0-.076-.109.227.227 0 0 0-.141-.043h-.532L57.654 11h.574zm4.848 0a.21.21 0 0 0 .139-.046.258.258 0 0 0 .079-.106l.442-1.142h2.122l.442 1.142c.018.044.044.08.08.11a.213.213 0 0 0 .138.042h.495l-1.89-4.729h-.65L62.58 11h.495zm2.604-1.756h-1.766l.743-1.92c.022-.057.044-.124.068-.2.023-.076.046-.159.07-.249.047.178.094.327.142.446l.743 1.923zm2.386 1.809c.24 0 .452-.039.637-.116.184-.077.34-.187.467-.331.126-.144.222-.321.287-.53a2.39 2.39 0 0 0 .097-.71V6.271h-.637V9.38c0 .198-.02.369-.06.513a.936.936 0 0 1-.18.355.704.704 0 0 1-.286.204 1.065 1.065 0 0 1-.388.066.948.948 0 0 1-.264-.03.585.585 0 0 0-.158-.03c-.047 0-.081.012-.104.035a.148.148 0 0 0-.041.091l-.02.187a5.288 5.288 0 0 0-.017.19c.231.061.453.092.667.092zM73.5 11l1.204-3.607a1.39 1.39 0 0 0 .032-.11l.031-.128c.02.09.042.17.066.238L76.032 11h.574l1.475-4.729h-.498a.217.217 0 0 0-.14.046.206.206 0 0 0-.075.106l-.98 3.287a1.425 1.425 0 0 0-.043.184c-.01.066-.023.136-.036.208a3.223 3.223 0 0 0-.105-.392l-1.106-3.287a.234.234 0 0 0-.077-.109.22.22 0 0 0-.14-.043h-.186a.213.213 0 0 0-.14.048.241.241 0 0 0-.077.104L73.366 9.71c-.02.057-.038.12-.053.19-.016.069-.031.14-.046.216a6.833 6.833 0 0 0-.042-.215 2.43 2.43 0 0 0-.047-.191L72.2 6.423a.21.21 0 0 0-.076-.109.227.227 0 0 0-.142-.043h-.531L72.927 11h.574z"/></g></svg>