<svg xmlns="http://www.w3.org/2000/svg" width="57" height="34" viewBox="0 0 57 34">
  <g fill="none" fill-rule="evenodd">
    <rect width="32.088" height="31.504" y=".018" fill="#00B1ED" fill-rule="nonzero"/>
    <rect width="32.088" height="31.504" x="24.912" y="2.333" fill="#96238E" fill-rule="nonzero"/>
    <polyline fill="#001884" fill-rule="nonzero" points="32.088 2.333 24.912 2.333 24.912 31.523 32.088 31.523 32.088 2.333"/>
    <path fill="#FFF" fill-rule="nonzero" d="M15.9740394,12.5802508 C14.8508867,11.3487461 12.9794335,10.5884013 11.1079803,10.5884013 C7.10239232,10.5884013 3.85522167,13.8511086 3.85522167,17.8758621 C3.85522167,21.9006155 7.10239232,25.1633229 11.1079803,25.1633229 C12.9780296,25.1633229 14.8986207,24.3945141 15.9740394,23.1714734 L15.9740394,24.7951411 L18.9110837,24.7951411 L18.9110837,10.9565831 L15.9740394,10.9565831 L15.9740394,12.5802508 Z M11.1079803,22.210815 C8.72525249,22.210815 6.79366995,20.2699905 6.79366995,17.8758621 C6.79366995,15.4817336 8.72525249,13.5409091 11.1079803,13.5409091 C13.4907081,13.5409091 15.4222906,15.4817336 15.4222906,17.8758621 C15.4191968,20.2687017 13.4894254,22.2077064 11.1079803,22.210815 L11.1079803,22.210815 Z M46.074532,10.5884013 C42.068944,10.5884013 38.8217734,13.8511086 38.8217734,17.8758621 C38.8217734,21.9006155 42.068944,25.1633229 46.074532,25.1633229 C50.08012,25.1633229 53.3272906,21.9006155 53.3272906,17.8758621 C53.3226503,13.8535921 50.0790513,10.5938425 46.075936,10.5884013 L46.074532,10.5884013 Z M46.074532,22.210815 C43.6918042,22.210815 41.7602217,20.2699905 41.7602217,17.8758621 C41.7602217,15.4817336 43.6918042,13.5409091 46.074532,13.5409091 C48.4572598,13.5409091 50.3888424,15.4817336 50.3888424,17.8758621 C50.3857504,20.2681519 48.4568328,22.2069297 46.075936,22.210815 L46.074532,22.210815 Z M21.9744828,24.7937304 L24.9115271,24.7937304 L24.9115271,6.57648903 L21.9744828,6.57648903 L21.9744828,24.7937304 Z M35.031133,6.57648903 L32.0884729,6.57648903 L32.0884729,19.6956113 C32.0915678,22.5091565 34.3607639,24.78921 37.1609113,24.7923197 L38.1155911,24.7923197 L38.1155911,21.8412226 L37.1609113,21.8412226 C35.9829824,21.8396683 35.028468,20.8805869 35.0269212,19.6970219 L35.0269212,13.9133229 L38.1155911,13.9133229 L38.1155911,10.9565831 L35.0269212,10.9565831 L35.031133,6.57648903 Z M26.9444335,24.7937304 L30.0653941,24.7937304 L30.0653941,21.657837 L26.9402217,21.657837 L26.9444335,24.7937304 Z"/>
  </g>
</svg>
