<svg xmlns="http://www.w3.org/2000/svg" xmlns:xlink="http://www.w3.org/1999/xlink" width="116" height="27" viewBox="0 0 116 27">
  <defs>
    <polygon id="combatlogo-a" points="0 .019 115.885 .019 115.885 26.986 0 26.986"/>
  </defs>
  <g fill="none" fill-rule="evenodd">
    <mask id="combatlogo-b" fill="#fff">
      <use xlink:href="#combatlogo-a"/>
    </mask>
    <path fill="#64B445" d="M18.7351934,6.76433628 L18.2501893,9.5209646 L12.4301399,9.5209646 L12.6218025,8.45052212 L14.4453416,8.45052212 L14.4453416,7.60730973 L13.6030288,7.60730973 L13.6030288,6.76433628 L12.9237366,6.76433628 L13.1722058,5.37586726 L12.7034321,4.90683186 L10.7894321,4.90683186 L10.3206584,5.37586726 L8.72553909,14.3527699 L7.46720165,14.3527699 L7.46720165,15.1957434 L6.02269136,15.1957434 L6.02269136,16.0389558 L7.46720165,16.0389558 L7.46720165,16.8821681 L8.27609877,16.8821681 L7.43020576,21.6430088 L7.89897942,22.1120442 L9.81297942,22.1120442 L10.2815144,21.6430088 L11.0238189,17.4979115 L13.6030288,17.4979115 L13.6030288,18.568354 L16.655786,18.568354 L15.7502222,23.7150796 L14.9957449,24.4706018 L13.7374074,24.4706018 L13.7374074,25.3138142 L12.0527819,25.3138142 L12.0527819,26.1567876 L13.311358,26.1567876 L12.4690453,27 L4.53975309,27 L1.25857613,23.7150796 L1.42231276,22.784177 L3.49599177,22.784177 L3.49599177,21.9412035 L2.65367901,21.9412035 L2.65367901,21.0979912 L1.71923457,21.0979912 L3.92204115,7.60730973 L5.1803786,7.60730973 L5.1803786,8.45052212 L6.02269136,8.45052212 L6.02269136,7.60730973 L5.1803786,7.60730973 L5.1803786,6.76433628 L4.24283128,6.76433628 L4.8521893,3.30355752 L8.13336626,0.0188761062 L16.0628971,0.0188761062 L17.7475226,1.70530088 L16.9720412,1.70530088 L16.9720412,2.54851327 L18.5895967,2.54851327 L19.3440741,3.30355752 L19.0318765,5.0779115 L17.7735391,5.0779115 L17.7735391,5.92112389 L16.9720412,5.92112389 L16.9720412,6.76433628 L18.7351934,6.76433628 Z M51.0884527,19.4118053 L53.07,19.4118053 L57.7465185,4.08560177 L54.457465,17.7253805 L54.457465,18.568354 L55.7160412,18.568354 L55.7160412,17.7253805 L56.5583539,17.7253805 L56.5583539,19.4118053 L55.0556049,19.4118053 L54.3154486,23.6273894 L54.8737284,23.6273894 L54.8737284,25.3138142 L54.0194815,25.3138142 L53.7232757,27 L59.2308889,27 L61.315786,15.1957434 L60.0574486,15.1957434 L60.0574486,14.3527699 L57.826716,14.3527699 L57.826716,13.5095575 L60.5042634,13.5095575 L60.5042634,12.6663451 L61.7623621,12.6663451 L62.954107,5.92112389 L59.5111029,5.92112389 L59.5111029,5.0779115 L63.1030453,5.0779115 L63.9964362,0.0188761062 L55.0124033,0.0188761062 L54.2748724,2.54851327 L56.5583539,2.54851327 L56.5583539,3.39172566 L55.7160412,3.39172566 L55.7160412,4.23493805 L53.7834239,4.23493805 L52.8002881,7.60730973 L54.0314156,7.60730973 L54.0314156,8.45052212 L52.5544444,8.45052212 L48.879679,21.056177 L49.947786,5.0779115 L48.6892099,5.0779115 L48.6892099,4.23493805 L50.0041152,4.23493805 L50.286,0.0188761062 L41.4189218,0.0188761062 L41.1210453,1.70530088 L42.2397531,1.70530088 L42.2397531,2.54851327 L43.0820658,2.54851327 L43.0820658,4.23493805 L42.2397531,4.23493805 L42.2397531,3.39172566 L40.8231687,3.39172566 L39.482963,10.9801593 L40.5553663,10.9801593 L40.5553663,11.8231327 L39.3340247,11.8231327 L37.6124033,19.4118053 L37.6124033,20.2547788 L38.8707407,20.2547788 L38.8707407,19.4118053 L39.7130535,19.4118053 L39.7130535,21.0979912 L37.6959424,21.0979912 L36.6536132,27 L41.3408724,27 L41.6368395,25.3138142 L39.2967901,25.3138142 L39.2967901,24.4706018 L40.6744691,24.4706018 L40.6744691,23.6273894 L41.9330453,23.6273894 L43.1173909,16.8821681 L41.397679,16.8821681 L41.397679,16.0389558 L43.2653745,16.0389558 L45.3641152,4.08560177 L44.350428,21.9412035 L44.3096132,27 L50.754535,27 L52.8126996,20.2547788 L51.0884527,20.2547788 L51.0884527,19.4118053 Z M77.6145021,6.76433628 L76.772428,6.76433628 L76.772428,8.45052212 L75.9301152,8.45052212 L75.9301152,7.60730973 L74.6717778,7.60730973 L74.6717778,10.1369469 L74.5388313,10.8896018 L71.6870453,10.8896018 L72.78093,4.71138053 L75.4761399,4.71138053 L74.9553333,5.18041593 L74.6717778,6.76433628 L76.772428,6.76433628 L76.772428,5.92112389 L77.6145021,5.92112389 L77.6145021,6.76433628 Z M73.0153169,21.8384602 L72.5465432,22.3077345 L69.6563292,22.3077345 L70.7888807,15.7773186 L73.5232346,15.7773186 L73.9920082,16.2468319 L73.0153169,21.8384602 Z M71.3027654,13.5095575 L73.4034156,13.5095575 L73.4034156,15.1957434 L72.5613416,15.1957434 L72.5613416,14.3527699 L71.3027654,14.3527699 L71.3027654,13.5095575 Z M65.8230782,24.4706018 L66.6651523,24.4706018 L66.6651523,23.6273894 L65.8230782,23.6273894 L65.8230782,24.4706018 Z M81.3231605,2.54851327 L77.1984774,2.54851327 L77.1984774,1.70530088 L80.4808477,1.70530088 L78.7966996,0.0188761062 L67.7809959,0.0188761062 L66.5897284,6.76433628 L69.1920905,6.76433628 L69.1920905,8.45052212 L67.0914403,8.45052212 L67.0914403,7.60730973 L66.2491276,7.60730973 L63.9090782,21.9412035 L66.6651523,21.9412035 L66.6651523,22.784177 L64.9807654,22.784177 L64.9807654,23.6273894 L63.6112016,23.6273894 L63.0156872,27 L71.7187901,27 L71.7187901,26.1567876 L69.6181399,26.1567876 L69.6181399,25.3138142 L71.7187901,25.3138142 L71.7187901,26.1567876 L72.5613416,26.1567876 L72.5613416,27 L75.2028477,27 L78.483786,23.7150796 L79.8461893,16.0389558 L78.0116708,16.0389558 L77.6145021,16.8821681 L76.772428,16.8821681 L76.772428,16.0389558 L77.777284,16.0389558 L77.777284,15.1957434 L79.0356214,15.1957434 L77.5462387,13.7047699 L80.8276543,10.4203274 L82.0773992,3.30355752 L81.3231605,2.54851327 Z M88.6115885,16.5593628 L88.7612428,16.0389558 L87.3057531,16.0389558 L87.3057531,16.8821681 L86.4634403,16.8821681 L86.4634403,15.1957434 L89.0035062,15.1957434 L90.4585185,10.1369469 L89.1999424,10.1369469 L89.1999424,8.45052212 L90.9435226,8.45052212 L92.2438683,3.92909735 L91.4626584,16.5593628 L88.6115885,16.5593628 Z M93.6174897,25.3138142 L93.6174897,24.4706018 L91.5168395,24.4706018 L91.5168395,23.6273894 L92.3591523,23.6273894 L92.3591523,22.7844159 L94.4600412,22.784177 L94.4600412,23.6273894 L93.6174897,23.6273894 L93.6174897,24.4706018 L95.7281646,24.4706018 L95.7281646,23.6273894 L96.7408971,23.6273894 L97.0313745,11.8231327 L94.8860905,11.8231327 L95.3021152,12.6663451 L94.4600412,12.6663451 L94.4600412,11.8231327 L94.8860905,11.8231327 L94.8860905,10.9801593 L97.0521399,10.9801593 L97.1352016,7.60730973 L94.0435391,7.60730973 L94.0435391,6.76433628 L95.9181564,6.76433628 L95.9181564,5.92112389 L97.1764938,5.92112389 L97.3218519,0.0188761062 L88.6502551,0.0188761062 L87.3057531,3.39172566 L87.3012181,4.23493805 L88.1478272,4.23493805 L88.1478272,3.39172566 L90.2484774,3.39172566 L90.2484774,4.23493805 L88.9901399,4.23493805 L88.9901399,5.0779115 L87.0315062,5.0779115 L80.5674897,24.4706018 L80.5572263,25.3138142 L81.8260658,25.3138142 L81.8260658,24.4706018 L82.6681399,24.4706018 L82.6681399,26.1567876 L80.2877531,26.1567876 L80.0180412,27 L85.603465,27 L87.1661235,21.5254513 L90.6745267,21.0979912 L90.6745267,27 L96.6580741,27 L96.6993663,25.3138142 L93.6174897,25.3138142 Z M115.885193,0.862088496 L115.097539,5.29773451 L110.839909,5.29773451 L109.83744,10.9801593 L107.936091,10.9801593 L107.936091,11.8231327 L108.778403,11.8231327 L108.778403,12.6663451 L109.540041,12.6663451 L107.458008,24.4706018 L104.992889,24.4706018 L105.409391,23.6273894 L103.308502,23.6273894 L103.308502,24.4706018 L102.466189,24.4706018 L102.466189,25.3138142 L103.308502,25.3138142 L103.724765,24.4706018 L104.992889,24.4706018 L104.992889,25.3138142 L105.902033,25.3138142 L105.902033,26.1567876 L107.16037,26.1567876 L107.011671,27 L101.230765,27 L101.623877,20.2547788 L104.56684,20.2547788 L104.56684,19.4118053 L103.724765,19.4118053 L103.724765,18.568354 L102.717761,18.568354 L104.800033,6.76433628 L106.251465,6.76433628 L106.251465,4.23493805 L105.409391,4.23493805 L105.409391,5.92112389 L104.992889,5.92112389 L105.058765,5.29773451 L100.645037,5.29773451 L100.98349,3.39172566 L102.882453,3.39172566 L102.882453,2.54851327 L103.724765,2.54851327 L103.724765,1.70530088 L101.282798,1.70530088 L101.582107,0.0188761062 L112.573226,0.0188761062 L112.573226,1.70530088 L114.257852,1.70530088 L114.257852,0.862088496 L115.885193,0.862088496 Z M27.7056214,22.1120442 L25.4791852,22.1120442 L25.0104115,21.6430088 L27.027284,10.1369469 L24.978428,10.1369469 L24.978428,9.29373451 L26.0644362,9.29373451 L26.0644362,8.45052212 L27.3227737,8.45052212 L27.8619588,5.37586726 L28.3307325,4.90683186 L30.5571687,4.90683186 L31.0257037,5.37586726 L29.1568148,16.0389558 L30.4483292,16.0389558 L30.4483292,16.8821681 L29.0088313,16.8821681 L28.1743951,21.6430088 L27.7056214,22.1120442 Z M23.7103045,22.784177 L23.7103045,23.6273894 L22.8679918,23.6273894 L22.8679918,22.784177 L21.6094156,22.784177 L21.6094156,21.9412035 L23.7103045,21.9412035 L23.7103045,22.784177 Z M29.1895144,25.3138142 L29.1897531,24.4706018 L28.7637037,24.4706018 L28.7637037,23.6273894 L29.6060165,23.6273894 L29.6060165,24.4706018 L31.7166914,24.4706018 L31.7166914,23.6273894 L33.6583786,23.6273894 L36.627358,6.76433628 L34.2433909,6.76433628 L34.2433909,5.92112389 L33.4010782,5.92112389 L33.4010782,5.0779115 L35.5017284,5.0779115 L35.5017284,5.92112389 L36.7758189,5.92112389 L37.236716,3.30355752 L33.9553004,0.0188761062 L25.713572,0.0188761062 L23.2940412,2.54851327 L23.2940412,3.39172566 L23.7103045,3.39172566 L23.7103045,2.54851327 L24.5523786,2.54851327 L24.5523786,3.39172566 L23.7103045,3.39172566 L23.7103045,5.0779115 L23.2940412,5.0779115 L23.2940412,4.23493805 L22.4517284,5.0779115 L21.0807325,10.9801593 L22.8679918,10.9801593 L22.8679918,11.8231327 L22.025679,11.8231327 L22.025679,12.6663451 L20.7838107,12.6663451 L18.8385432,23.7150796 L22.1197202,27 L30.3616872,27 L32.0463128,25.3138142 L29.1895144,25.3138142 L29.1895144,25.3138142 Z" mask="url(#combatlogo-b)"/>
    <path fill="#0A0B09" d="M17.4766173,6.76433628 L16.9918519,9.5209646 L11.1715638,9.5209646 L11.3632263,8.45052212 L13.1867654,8.45052212 L13.1867654,7.60730973 L12.3444527,7.60730973 L12.3444527,6.76433628 L11.6651605,6.76433628 L11.9138683,5.37586726 L11.4450947,4.90683186 L9.53109465,4.90683186 L9.06232099,5.37586726 L7.46720165,14.3527699 L6.44874074,14.3527699 L6.44874074,15.1957434 L4.76435391,15.1957434 L4.76435391,16.0389558 L6.44874074,16.0389558 L6.44874074,16.8821681 L7.01776132,16.8821681 L6.17186831,21.6430088 L6.64040329,22.1120442 L8.55440329,22.1120442 L9.02317695,21.6430088 L9.76548148,17.4979115 L12.3444527,17.4979115 L12.3444527,18.568354 L15.3972099,18.568354 L14.4918848,23.7150796 L13.7374074,24.4706018 L12.3444527,24.4706018 L12.3444527,25.3138142 L10.6600658,25.3138142 L10.6600658,26.1567876 L12.0527819,26.1567876 L11.2107078,27 L3.28117695,27 L0,23.7150796 L0.163975309,22.784177 L2.23741564,22.784177 L2.23741564,21.9412035 L1.39510288,21.9412035 L1.39510288,21.0979912 L0.460897119,21.0979912 L2.83603292,7.60730973 L3.92204115,7.60730973 L3.92204115,8.45052212 L4.76435391,8.45052212 L4.76435391,7.60730973 L3.92204115,7.60730973 L3.92204115,6.76433628 L2.98449383,6.76433628 L3.59361317,3.30355752 L6.87479012,0.0188761062 L14.804321,0.0188761062 L16.4889465,1.70530088 L15.7137037,1.70530088 L15.7137037,2.54851327 L17.3312593,2.54851327 L18.0854979,3.30355752 L17.7735391,5.0779115 L16.5557778,5.0779115 L16.5557778,5.92112389 L15.7137037,5.92112389 L15.7137037,6.76433628 L17.4766173,6.76433628 Z M46.0350535,23.6273894 L45.1927407,23.6273894 L45.1927407,24.4706018 L44.350428,24.4706018 L44.350428,21.9412035 L45.1927407,21.9412035 L45.1927407,22.784177 L46.0350535,22.784177 L46.0350535,23.6273894 Z M58.6687901,15.1957434 L58.6687901,14.3527699 L56.9844033,14.3527699 L56.9844033,13.5095575 L59.5111029,13.5095575 L59.5111029,12.6663451 L60.5042634,12.6663451 L61.6955309,5.92112389 L58.6687901,5.92112389 L58.6687901,5.0779115 L61.8444691,5.0779115 L62.7378601,0.0188761062 L53.7540658,0.0188761062 L53.016535,2.54851327 L55.2997778,2.54851327 L55.2997778,3.39172566 L54.457465,3.39172566 L54.457465,4.23493805 L52.5248477,4.23493805 L51.5419506,7.60730973 L52.7730782,7.60730973 L52.7730782,8.45052212 L51.296107,8.45052212 L47.6213416,21.056177 L48.6892099,5.0779115 L47.7194403,5.0779115 L47.7194403,5.92112389 L46.8773663,5.92112389 L46.8773663,5.0779115 L47.7194403,5.0779115 L47.7194403,4.23493805 L48.7457778,4.23493805 L49.0274239,0.0188761062 L40.1605844,0.0188761062 L39.8627078,1.70530088 L40.9814156,1.70530088 L40.9814156,2.54851327 L41.8237284,2.54851327 L41.8237284,4.23493805 L40.9814156,4.23493805 L40.9814156,3.39172566 L39.5648313,3.39172566 L38.2246255,10.9801593 L39.2967901,10.9801593 L39.2967901,11.8231327 L38.0756872,11.8231327 L36.5865432,20.2547788 L37.6124033,20.2547788 L37.6124033,19.4118053 L38.4544774,19.4118053 L38.4544774,21.0979912 L36.4376049,21.0979912 L35.395037,27 L40.0822963,27 L40.3785021,25.3138142 L38.4544774,25.3138142 L38.4544774,24.4706018 L40.1391029,24.4706018 L40.1391029,23.6273894 L40.6744691,23.6273894 L41.8588148,16.8821681 L40.1391029,16.8821681 L40.1391029,16.0389558 L42.0067984,16.0389558 L44.1057778,4.08560177 L43.051037,27 L49.4961975,27 L51.5543621,20.2547788 L51.0884527,20.2547788 L51.0884527,19.4118053 L50.2461399,19.4118053 L50.2461399,18.568354 L51.0884527,18.568354 L51.0884527,19.4118053 L51.8116626,19.4118053 L56.4881811,4.08560177 L53.945251,18.568354 L54.457465,18.568354 L54.457465,17.7253805 L55.2997778,17.7253805 L55.2997778,19.4118053 L53.7972675,19.4118053 L53.0571111,23.6273894 L53.6153909,23.6273894 L53.6153909,25.3138142 L52.7609053,25.3138142 L52.4649383,27 L57.9725514,27 L60.0574486,15.1957434 L58.6687901,15.1957434 Z M76.3564033,6.76433628 L75.5140905,6.76433628 L75.5140905,8.45052212 L74.6717778,8.45052212 L74.6717778,7.60730973 L74.2521728,7.60730973 L73.7487901,10.4203274 L73.2802551,10.8896018 L70.4287078,10.8896018 L71.5225926,4.71138053 L74.2178025,4.71138053 L74.6865761,5.18041593 L74.4030206,6.76433628 L75.5140905,6.76433628 L75.5140905,5.92112389 L76.3564033,5.92112389 L76.3564033,6.76433628 Z M71.7567407,21.8384602 L71.2882058,22.3077345 L68.3977531,22.3077345 L69.5303045,15.7773186 L72.2646584,15.7773186 L72.7334321,16.2468319 L71.7567407,21.8384602 Z M69.6181399,13.5095575 L72.1448395,13.5095575 L72.1448395,15.1957434 L71.3027654,15.1957434 L71.3027654,14.3527699 L69.6181399,14.3527699 L69.6181399,13.5095575 Z M64.5647407,24.4706018 L65.4070535,24.4706018 L65.4070535,23.6273894 L64.5647407,23.6273894 L64.5647407,24.4706018 Z M80.064823,2.54851327 L76.3564033,2.54851327 L76.3564033,1.70530088 L79.222749,1.70530088 L77.5381235,0.0188761062 L66.5226584,0.0188761062 L65.3311523,6.76433628 L67.9337531,6.76433628 L67.9337531,8.45052212 L66.2491276,8.45052212 L66.2491276,7.60730973 L65.182214,7.60730973 L62.6507407,21.9412035 L65.4070535,21.9412035 L65.4070535,22.784177 L63.722428,22.784177 L63.722428,23.6273894 L62.3528642,23.6273894 L61.7573498,27 L70.4604527,27 L70.4604527,26.1567876 L68.7758272,26.1567876 L68.7758272,25.3138142 L70.4604527,25.3138142 L70.4604527,26.1567876 L71.3027654,26.1567876 L71.3027654,27 L73.9442716,27 L77.2254486,23.7150796 L78.5878519,16.0389558 L76.3564033,16.0389558 L76.3564033,16.8821681 L75.5140905,16.8821681 L75.5140905,16.0389558 L76.3564033,16.0389558 L76.3564033,15.1957434 L77.777284,15.1957434 L76.2879012,13.7047699 L79.5693169,10.4203274 L80.818823,3.30355752 L80.064823,2.54851327 Z M87.3530123,16.5593628 L87.5026667,16.0389558 L86.4634403,16.0389558 L86.4634403,16.8821681 L85.6211276,16.8821681 L85.6211276,15.1957434 L87.7451687,15.1957434 L89.1999424,10.1369469 L88.1478272,10.1369469 L88.1478272,8.45052212 L89.6851852,8.45052212 L90.9855309,3.92909735 L90.2040823,16.5593628 L87.3530123,16.5593628 Z M92.3591523,25.3138142 L92.3591523,24.4706018 L90.6745267,24.4706018 L90.6745267,23.6273894 L91.5168395,23.6273894 L91.5168395,22.784177 L93.201465,22.784177 L93.201465,23.6273894 L92.3591523,23.6273894 L92.3591523,24.4706018 L94.8860905,24.4706018 L94.8860905,23.6273894 L95.4825597,23.6273894 L95.773037,11.8231327 L94.0435391,11.8231327 L94.0435391,12.6663451 L93.201465,12.6663451 L93.201465,11.8231327 L94.0435391,11.8231327 L94.0435391,10.9801593 L95.7935638,10.9801593 L95.8766255,7.60730973 L93.201465,7.60730973 L93.201465,6.76433628 L94.8860905,6.76433628 L94.8860905,5.92112389 L95.9181564,5.92112389 L96.0632757,0.0188761062 L87.391679,0.0188761062 L86.0431193,4.23493805 L87.3057531,4.23493805 L87.3057531,3.39172566 L88.9901399,3.39172566 L88.9901399,4.23493805 L87.3057531,4.23493805 L87.3057531,5.0779115 L85.7731687,5.0779115 L79.2988889,25.3138142 L80.5674897,25.3138142 L80.5674897,24.4706018 L81.4098025,24.4706018 L81.4098025,26.1567876 L79.029177,26.1567876 L78.759465,27 L84.3451276,27 L85.9075473,21.5254513 L89.8918848,21.5254513 L89.5792099,27 L95.3994979,27 L95.4410288,25.3138142 L92.3591523,25.3138142 Z M114.626856,0.862088496 L113.839202,5.29773451 L109.581333,5.29773451 L108.579103,10.9801593 L106.677514,10.9801593 L106.677514,11.8231327 L107.519827,11.8231327 L107.519827,12.6663451 L108.281704,12.6663451 L106.199432,24.4706018 L104.150815,24.4706018 L104.150815,23.6273894 L102.466189,23.6273894 L102.466189,24.4706018 L101.623877,24.4706018 L101.623877,25.3138142 L102.466189,25.3138142 L102.466189,24.4706018 L104.150815,24.4706018 L104.150815,25.3138142 L104.992889,25.3138142 L104.992889,26.1567876 L105.902033,26.1567876 L105.753333,27 L99.9721893,27 L101.162025,20.2547788 L103.308502,20.2547788 L103.308502,19.4118053 L102.466189,19.4118053 L102.466189,18.568354 L101.459424,18.568354 L103.541457,6.76433628 L104.992889,6.76433628 L104.992889,4.23493805 L104.150815,4.23493805 L104.150815,5.29773451 L99.3864609,5.29773451 L99.7249136,3.39172566 L101.623877,3.39172566 L101.623877,2.54851327 L102.466189,2.54851327 L102.466189,1.70530088 L100.024461,1.70530088 L100.32377,0.0188761062 L111.731152,0.0188761062 L111.731152,1.70530088 L113.415778,1.70530088 L113.415778,0.862088496 L114.626856,0.862088496 Z M26.4470453,22.1120442 L24.2206091,22.1120442 L23.7520741,21.6430088 L25.7689465,10.1369469 L24.1361152,10.1369469 L24.1361152,9.29373451 L24.978428,9.29373451 L24.978428,8.45052212 L26.0644362,8.45052212 L26.6033827,5.37586726 L27.0721564,4.90683186 L29.2988313,4.90683186 L29.7673663,5.37586726 L27.8982387,16.0389558 L29.1897531,16.0389558 L29.1897531,16.8821681 L27.7504938,16.8821681 L26.9160576,21.6430088 L26.4470453,22.1120442 Z M23.2940412,22.784177 L22.4517284,22.784177 L22.4517284,23.6273894 L21.6094156,23.6273894 L21.6094156,22.784177 L20.7673416,22.784177 L20.7673416,21.9412035 L23.2940412,21.9412035 L23.2940412,22.784177 Z M28.3474403,25.3138142 L28.3474403,24.4706018 L27.5051276,24.4706018 L27.5051276,23.6273894 L28.3474403,23.6273894 L28.3474403,24.4706018 L30.8743786,24.4706018 L30.8743786,23.6273894 L32.4000412,23.6273894 L35.3690206,6.76433628 L33.4010782,6.76433628 L33.4010782,5.92112389 L32.5587654,5.92112389 L32.5587654,5.0779115 L34.2433909,5.0779115 L34.2433909,5.92112389 L35.5174815,5.92112389 L35.9781399,3.30355752 L32.696963,0.0188761062 L24.4552346,0.0188761062 L21.1738189,3.30355752 L21.1583045,3.39172566 L22.4517284,3.39172566 L22.4517284,2.54851327 L23.2940412,2.54851327 L23.2940412,3.39172566 L22.4517284,3.39172566 L22.4517284,5.0779115 L21.6094156,5.0779115 L21.6094156,4.23493805 L21.0100823,4.23493805 L19.8223951,10.9801593 L21.6094156,10.9801593 L21.6094156,11.8231327 L20.7673416,11.8231327 L20.7673416,12.6663451 L19.5254733,12.6663451 L17.5802058,23.7150796 L20.8616214,27 L29.1033498,27 L30.7877366,25.3138142 L28.3474403,25.3138142 L28.3474403,25.3138142 Z" mask="url(#combatlogo-b)"/>
  </g>
</svg>
