<?xml version="1.0" encoding="utf-8"?>
<!-- Generator: Adobe Illustrator 25.4.1, SVG Export Plug-In . SVG Version: 6.00 Build 0)  -->
<svg version="1.1" id="Layer_1" xmlns="http://www.w3.org/2000/svg" xmlns:xlink="http://www.w3.org/1999/xlink" x="0px" y="0px"
	 width="117px" height="34px" viewBox="0 0 117 34" style="enable-background:new 0 0 117 34;" xml:space="preserve">
<style type="text/css">
	.st0{fill:#00E600;}
</style>
<g>
	<g>
		<g>
			<polygon class="st0" points="78.8,21.4 72.4,21.4 78,11.7 78.8,10.4 77.2,10.4 70,10.4 70,11.7 76.4,11.7 70.8,21.4 70,22.8 
				71.6,22.8 78,22.8 			"/>
			<g>
				<polygon class="st0" points="96.2,10.4 87.4,10.4 87.4,11.7 95.4,11.7 				"/>
				<polygon class="st0" points="96.2,15.9 87.4,15.9 87.4,17.3 95.4,17.3 				"/>
				<polygon class="st0" points="96.2,21.4 87.4,21.4 87.4,22.8 95.4,22.8 				"/>
			</g>
			<path class="st0" d="M113.6,14.2v-0.8c0-1.7-1.4-3.1-3.1-3.1h-4.3h-1.4v6.9v5.5h1.4v-5.5h2.6l3.2,5.5h1.6l-3.2-5.5h0.1
				C112.2,17.3,113.6,15.9,113.6,14.2z M106.2,11.7h4.3c0.9,0,1.7,0.8,1.7,1.7v0.8c0,0.9-0.8,1.7-1.7,1.7h-4.3V11.7z"/>
			<path class="st0" d="M43.9,14.2v-0.8c0-1.7-1.4-3.1-3.1-3.1h-4.3h-1.4v6.9v5.5h1.4v-5.5h2.6l3.2,5.5h1.6l-3.2-5.5h0.1
				C42.5,17.3,43.9,15.9,43.9,14.2z M36.5,11.7h4.3c0.9,0,1.7,0.8,1.7,1.7v0.8c0,0.9-0.8,1.7-1.7,1.7h-4.3V11.7z"/>
			<polygon class="st0" points="53.4,22.8 56.9,14 60.5,22.8 62,22.8 57.7,12.2 56.9,10.4 56.2,12.2 51.9,22.8 			"/>
		</g>
		<g>
			<path class="st0" d="M114.3,10.5h0.9v0.2h-0.3v1h-0.2v-1h-0.3V10.5z"/>
			<path class="st0" d="M115.5,10.5h0.3l0.3,0.9l0.3-0.9h0.3v1.2h-0.2v-1h0l-0.3,0.9H116l-0.3-0.9h0v1h-0.2V10.5z"/>
		</g>
	</g>
	<g>
		<g>
			<path class="st0" d="M21.1,29.6h0.3v0.1h-0.1V30h-0.1v-0.3L21.1,29.6L21.1,29.6z"/>
			<path class="st0" d="M21.5,29.6h0.1l0.1,0.3l0.1-0.3h0.1V30h-0.1v-0.3h0L21.8,30h-0.1L21.5,29.6L21.5,29.6l0.1,0.4h-0.1V29.6z"/>
		</g>
		<g>
			<path class="st0" d="M27.2,4.1c0-0.1-0.1-0.1-0.1-0.1c0-0.1,0-0.2,0-0.3c0,0-0.1-0.1-0.1-0.1c-0.2-0.1-0.4-0.1-0.6,0l-0.2,0.3
				L25.7,4C25.5,4,25.4,4,25.2,4c-0.1,0-0.1,0-0.2,0c-0.2,0-0.3-0.1-0.6,0c-0.1,0-0.2,0-0.4,0.1c-0.2,0.1-0.4,0.3-0.5,0.4
				c0,0,0,0,0,0.1c-0.6,0.2-0.9,0.5-1,0.8c0,0.1-0.1,0.2-0.1,0.3c-0.1-0.1-0.2-0.2-0.4-0.2c-0.7-0.3-1.7-0.2-2.3,0.3
				c-0.7,0.6-1,1.5-0.8,2.4c0.1,0.4,0.2,0.8,0.5,1.2c0.5,0.9,1.2,1.6,2,2.4c0.6,0.7,1.2,1.3,1.6,1.9c0,0,0,0.1,0.1,0.1
				c0.4,0.8,0.4,1.5-0.2,1.9c-0.2,0.1-0.4,0.2-0.6,0.2c0.2-0.6,0.3-1.5-0.2-2.3c-0.1-0.2-0.2-0.3-0.3-0.5c-0.9-1-1.8-0.8-2.2-0.5
				c-0.2,0.1-0.2,0.3-0.2,0.5c0,0,0,0,0,0.1c0.1,0.1,0.3,0.2,0.4,0.2c0.4,0,0.8,0.2,1.1,0.7c0.1,0.2,0.4,0.8,0,1.4
				c-0.2-0.2-0.4-0.4-0.6-0.6c0,0-0.1-0.1-0.1-0.1c0,0,0,0,0,0c-0.7-0.8-1.5-1.3-2.2-1.4c0-0.5-0.2-1.1-0.5-1.6
				C17,11,16.5,10.4,15.9,10c-0.1-0.1-0.2-0.1-0.3-0.2C15.3,8,14.1,7,13,6.7C11.7,6.4,10.4,6.9,9.7,8C9.6,8.1,9.6,8.2,9.5,8.3
				c-0.5,1-0.9,2.1-1.2,3.1c-0.3,0.9-0.5,1.8-0.9,2.5c0,0,0,0.1-0.1,0.1c-0.2,0.4-0.5,0.7-0.7,0.7c-0.1,0-0.3,0-0.4-0.1
				c-0.2-0.2-0.2-0.5,0-1.1c0.1-0.2,0.1-0.3,0.1-0.5c0.1-0.4,0-0.8-0.2-1.1c-0.2-0.3-0.5-0.4-0.9-0.5c-0.3,0-0.9,0.1-1.3,0.8
				C4,12.4,4,12.5,4,12.6c-0.1-0.2-0.2-0.4-0.4-0.5c-0.2-0.1-0.3-0.2-0.4-0.2c-0.2-0.2-0.4-0.2-0.6-0.2c-0.1,0-0.1,0-0.2-0.1
				c-0.2-0.1-0.3-0.1-0.5-0.1l-0.4-0.3l-0.2-0.3c-0.1-0.2-0.3-0.3-0.5-0.2c-0.1,0-0.2,0.1-0.2,0.2c0,0.1-0.1,0.1-0.1,0.2
				c-0.1,0-0.2,0.1-0.2,0.2c0,0,0,0.1-0.1,0.2c0,0.2,0.1,0.4,0.3,0.5L1,12l0.4,0.3c0,0.1,0.1,0.3,0.2,0.4c0.1,0.1,0.1,0.1,0.1,0.2
				c0.1,0.2,0.1,0.3,0.4,0.5c0,0.1,0.1,0.2,0.3,0.3c0.2,0.2,0.4,0.2,0.6,0.2c0,0,0,0,0.1,0c0.5,0.5,0.9,0.5,1.2,0.5
				c0.1,0,0.2,0,0.3-0.1c0,0.2,0,0.3,0,0.4c0.1,0.8,0.7,1.5,1.5,1.8c0.9,0.3,1.8,0.1,2.5-0.5c0.3-0.3,0.5-0.6,0.8-1
				c0.5-0.9,0.8-1.9,1.1-2.9c0.3-0.9,0.5-1.7,0.9-2.3c0,0,0-0.1,0.1-0.1c0.5-0.8,1.1-1.1,1.7-0.7c0.2,0.1,0.4,0.3,0.5,0.4
				c-0.7,0.1-1.5,0.5-1.9,1.3c-0.1,0.2-0.2,0.3-0.2,0.5c-0.4,1.3,0.3,2,0.7,2.2c0.2,0.1,0.4,0,0.5-0.1c0,0,0,0,0-0.1
				c0.1-0.1,0.1-0.3,0-0.5c-0.2-0.3-0.2-0.8,0-1.3c0.1-0.2,0.5-0.7,1.2-0.7c0,0.3-0.1,0.6-0.2,0.8c0,0,0,0.1,0,0.1c0,0,0,0,0,0.1
				c-0.3,1-0.4,1.9-0.1,2.6c-0.5,0.3-0.9,0.7-1.2,1.2c-0.4,0.6-0.6,1.4-0.7,2.2c0,0.1,0,0.2,0,0.3c-1.5,1.1-1.7,2.6-1.4,3.7
				c0.4,1.3,1.5,2.2,2.8,2.3c0.1,0,0.2,0,0.4,0c1.1,0,2.2-0.3,3.3-0.6c0.9-0.2,1.8-0.4,2.6-0.5c0,0,0.1,0,0.1,0c0.5,0,0.8,0.1,1,0.2
				c0.1,0.1,0.2,0.2,0.1,0.4c0,0.3-0.3,0.4-1,0.5c-0.2,0-0.4,0.1-0.5,0.1c-0.4,0.1-0.7,0.4-0.8,0.7c-0.1,0.3-0.1,0.7,0,1
				c0.1,0.3,0.5,0.7,1.3,0.7c0.1,0,0.1,0,0.2,0c-0.1,0.1-0.2,0.3-0.3,0.6c0,0.2,0,0.3,0,0.4c0,0.3,0,0.5,0.1,0.6c0,0.1,0,0.1,0,0.2
				c0,0.2,0.1,0.3,0.1,0.5l-0.1,0.5l-0.2,0.3c-0.1,0.2-0.1,0.4,0.1,0.6c0.1,0.1,0.2,0.1,0.3,0.1c0.1,0,0.1,0,0.2,0
				c0.1,0.1,0.2,0.1,0.3,0.1c0.1,0,0.1,0,0.2,0c0.2-0.1,0.3-0.3,0.2-0.5l-0.1-0.3l0.1-0.5c0.1-0.1,0.2-0.2,0.2-0.4
				c0-0.1,0-0.1,0.1-0.2c0.1-0.1,0.2-0.3,0.3-0.6c0.1-0.1,0.1-0.2,0.1-0.4c0-0.2,0-0.4-0.1-0.6c0,0,0,0,0-0.1c0.2-0.6,0-1-0.2-1.3
				c-0.1-0.1-0.1-0.1-0.2-0.2c0.1-0.1,0.3-0.1,0.4-0.2c0.7-0.5,1-1.3,0.9-2.2c-0.1-0.9-0.8-1.6-1.7-1.9c-0.4-0.1-0.8-0.2-1.3-0.2
				c-1,0-2,0.3-3.1,0.5c-0.9,0.2-1.8,0.4-2.4,0.4c0,0-0.1,0-0.1,0c-1,0-1.5-0.4-1.5-1.1c0-0.3,0-0.5,0.1-0.7c0.4,0.5,1.2,1,2.1,1
				c0.2,0,0.4,0,0.6-0.1c1.3-0.3,1.6-1.2,1.5-1.7c0-0.2-0.2-0.4-0.4-0.4c0,0,0,0-0.1,0c-0.2,0-0.3,0.1-0.4,0.3
				c-0.2,0.4-0.6,0.6-1.1,0.6c-0.2,0-0.9-0.1-1.2-0.7c0.3-0.1,0.6-0.2,0.8-0.2c0,0,0.1,0,0.1,0c0,0,0,0,0.1,0
				c1.1-0.2,1.8-0.6,2.3-1.2c0.5,0.3,1,0.4,1.6,0.4c0.7,0,1.5-0.2,2.2-0.5c0.1-0.1,0.2-0.1,0.3-0.2c1.7,0.7,3.1,0.1,3.9-0.7
				c0.9-1,1.2-2.3,0.6-3.5c-0.1-0.1-0.1-0.2-0.2-0.3c-0.5-1-1.4-1.8-2.1-2.6c-0.7-0.7-1.3-1.3-1.7-2c0,0,0-0.1-0.1-0.1
				c-0.2-0.4-0.3-0.7-0.3-1c0-0.1,0.1-0.2,0.3-0.3c0.3-0.1,0.5,0.1,0.9,0.6c0.1,0.1,0.2,0.3,0.4,0.4c0.3,0.3,0.7,0.4,1,0.3
				c0.3,0,0.6-0.2,0.8-0.5c0.2-0.3,0.4-0.8-0.1-1.5c0-0.1-0.1-0.1-0.1-0.2c0.2,0,0.4,0.1,0.6-0.1C24.9,6,25,5.9,25.1,5.8
				c0.3-0.1,0.4-0.3,0.5-0.4c0-0.1,0.1-0.1,0.1-0.1c0.2-0.1,0.3-0.2,0.3-0.4l0.4-0.2l0.4,0c0.2,0,0.4-0.2,0.4-0.4
				C27.3,4.3,27.3,4.2,27.2,4.1z M15.3,11.9c0.2,0.3,0.3,0.6,0.4,1c0.1,0.4,0.1,0.7,0,0.9c-0.1,0.2-0.4,0.2-0.5-0.3
				C15.2,13.1,15.3,12.3,15.3,11.9z M14.8,16.5c-0.3,0.3-1.1,0.6-1.4,0.7c0.2-0.3,0.4-0.6,0.6-0.8c0.3-0.3,0.6-0.4,0.8-0.4
				C15,16,15.1,16.2,14.8,16.5z M17.9,16.2c-0.4-0.1-0.6-0.3-0.7-0.4c-0.1-0.2,0-0.4,0.5-0.3c0.4,0.1,1,0.6,1.3,0.9
				C18.6,16.3,18.3,16.3,17.9,16.2z"/>
			<path d="M26.9,4.3l-0.4-0.1l0.2-0.4l-0.3,0.3l-0.7,0.3c-0.1-0.1-0.2-0.1-0.3-0.1c-0.4,0.1-0.4-0.1-0.9,0.1c-0.1,0-0.1,0-0.3,0.1
				c-0.2,0.1-0.3,0.4-0.5,0.4c-1,0.2-1,1-0.6,1.6c0.1,0.1,0.2,0.2,0.1,0.3c0,0-0.1,0.1-0.2-0.1c-0.2-0.3-0.7-0.8-1.1-1
				c-1.2-0.5-2.9,0.4-2.5,2.3c0.5,2,3.2,3.8,4,5.5c0.6,1.2,0.3,2-0.4,2.4c-0.5,0.3-1.1,0.3-1.5,0.2c0.4-0.5,0.8-1.9-0.2-2.9
				c-0.9-1-1.7-0.4-1.7-0.4c1.2-0.2,2.5,1.7,1.2,3.1c-0.5-0.3-0.9-0.7-1.1-1c-0.2-0.2-1.2-1.4-2.4-1.3c0.2-1.2-0.6-2.6-1.8-3.4
				c-0.2-0.1-0.3-0.2-0.5-0.3c-0.3-3.2-3.7-3.9-5.1-1.8c-1.1,1.7-1.3,4.2-2.2,5.9c-0.4,0.8-1.1,1.4-1.8,0.9c-0.7-0.5-0.1-1.5,0-2
				c0.1-0.6-0.2-1-0.7-1c-0.6,0-0.9,0.6-1,0.8c-0.2,0.4-0.5,0.2-0.6,0.1c-0.1-0.1-0.1-0.4-0.3-0.5c-0.2-0.2-0.2-0.1-0.3-0.1
				c-0.4-0.3-0.4-0.1-0.8-0.3c-0.1-0.1-0.3-0.1-0.4,0l-0.6-0.5l-0.2-0.4l0.1,0.4l-0.4,0l0.4,0.1L1.8,12c0,0.1,0,0.2,0.1,0.3
				c0.3,0.3,0.1,0.4,0.5,0.7c0.1,0.1,0,0.1,0.2,0.3c0.2,0.1,0.5,0.1,0.6,0.2c0.7,0.8,1.4,0.3,1.7-0.3C4.9,13.1,5,13,5.1,13
				c0.1,0,0.1,0.1,0,0.3c-0.2,0.4-0.4,1-0.3,1.4C4.9,16,6.6,17,8,15.7c1.5-1.4,1.7-4.7,2.7-6.2c0.7-1.2,1.6-1.2,2.3-0.9
				c0.6,0.3,0.9,0.8,1,1.2c-0.6,0-2,0.3-2.4,1.6c-0.4,1.2,0.4,1.6,0.4,1.6c-0.8-1,0.2-3,2.1-2.6c0,0.6-0.2,1.1-0.3,1.4
				c-0.1,0.3-0.6,1.8,0.1,2.7c-1.2,0.4-1.9,1.8-2,3.2c0,0.2,0,0.3,0,0.5c-2.6,1.8-1.5,5.2,1,5.3c2.1,0.1,4.3-1,6.2-1
				c0.9,0,1.8,0.2,1.7,1.1c-0.1,0.9-1.2,0.8-1.8,1c-0.6,0.2-0.7,0.7-0.5,1.1c0.2,0.5,1,0.4,1.2,0.4c0.5,0,0.5,0.3,0.4,0.5
				c0,0.1-0.3,0.3-0.3,0.5c0,0.3,0,0.3,0,0.3c-0.1,0.5,0.1,0.4,0.1,0.8c0,0.2,0.1,0.3,0.2,0.3L20,29.7L19.8,30l0.3-0.3l0.2,0.4
				l-0.1-0.4l0.1-0.8c0.1,0,0.2-0.1,0.2-0.2c0.1-0.4,0.3-0.3,0.4-0.8c0-0.1,0.1,0,0.1-0.3c0-0.2-0.2-0.5-0.1-0.6
				c0.3-1-0.4-1.4-1.1-1.3c-0.2,0-0.3,0-0.3-0.1c0-0.1,0-0.2,0.2-0.2c0.4,0,1-0.2,1.4-0.4c1-0.7,1.1-2.7-0.7-3.3
				c-2-0.6-4.9,0.8-6.8,0.8c-1.4-0.1-1.9-0.8-1.9-1.6c0-0.6,0.3-1.1,0.6-1.5c0.3,0.6,1.2,1.6,2.6,1.3c1.3-0.3,1.2-1.2,1.2-1.2
				c-0.5,1.2-2.7,1.3-3.3-0.5c0.5-0.3,1-0.4,1.4-0.5c0.3-0.1,1.8-0.3,2.3-1.4c1,0.8,2.6,0.8,3.8,0.2c0.2-0.1,0.3-0.2,0.4-0.3
				c2.9,1.4,5.3-1.3,4.1-3.5c-0.9-1.8-3-3.3-4-4.8c-0.5-0.8-0.7-1.6,0.1-2c0.8-0.4,1.4,0.7,1.8,1c0.5,0.4,1,0.3,1.2-0.1
				c0.3-0.5-0.1-1.1-0.2-1.3c-0.3-0.4,0.1-0.6,0.2-0.6c0.1,0,0.4,0.1,0.6,0c0.3-0.1,0.2-0.2,0.3-0.2c0.4-0.2,0.3-0.3,0.7-0.5
				c0.1-0.1,0.2-0.2,0.2-0.3l0.7-0.3L26.9,4.3z M15.1,11c0.6,0.5,1,1.2,1.1,1.8c0.1,0.5,0,0.9-0.1,1.2c-0.3,0.5-1,0.5-1.2-0.4
				C14.7,12.8,15,11.5,15.1,11z M15.1,16.9c-0.6,0.5-1.8,0.9-2.4,1.1c0.1-0.7,0.6-1.4,1-1.9c0.4-0.4,0.8-0.5,1.1-0.5
				C15.4,15.6,15.8,16.2,15.1,16.9z M17.8,16.6c-0.5-0.2-0.8-0.4-1-0.7c-0.3-0.5,0.1-1.2,1-0.8c0.7,0.2,1.7,1.1,2.1,1.5
				C19.2,16.8,18.4,16.8,17.8,16.6z"/>
		</g>
	</g>
</g>
</svg>
