<svg xmlns="http://www.w3.org/2000/svg" width="90" height="42" viewBox="0 0 90 42">
  <path d="M47.2067308 17.1982759L47.2067308 19.3965517 51.6201923 19.3965517 51.6201923 25.9913793 45 25.9913793 45 23.7931034 49.4134615 23.7931034 49.4134615 21.5948276 45 21.5948276 45 15 51.6201923 15 51.6201923 17.1982759 47.2067308 17.1982759zM90 15L90 19.3965517 88.8923077 20.5 90 21.6034483 90 26 87.7932692 26 87.7932692 21.6034483 85.5865385 21.6034483 85.5865385 26 83.3798077 26 83.3798077 15 90 15zM87.7932692 17.1982759L85.5865385 17.1982759 85.5865385 19.3965517 87.7932692 19.3965517 87.7932692 17.1982759zM53.8269231 15L53.8269231 25.9913793 56.0336538 25.9913793 56.0336538 15 53.8269231 15zM70.1480769 15L70.1480769 19.3965517 69.0403846 23.7068966 67.9326923 19.3965517 67.9326923 15 65.7346154 15 65.7346154 19.3965517 67.4134615 25.9568966 70.6759615 25.9568966 72.3548077 19.3965517 72.3548077 15 70.1480769 15zM60.4557692 23.7931034L60.4557692 15 58.2490385 15 58.2490385 25.9913793 64.8519231 25.9913793 64.8519231 23.7931034 60.4557692 23.7931034 60.4557692 23.7931034zM81.1644231 15L81.1644231 21.5948276 76.7682692 21.5948276 76.7682692 23.7931034 81.1644231 23.7931034 81.1644231 25.9913793 74.5615385 25.9913793 74.5615385 15 81.1644231 15zM78.9576923 19.3965517L78.9576923 17.1982759 76.7682692 17.1982759 76.7682692 19.3965517 78.9576923 19.3965517zM72.0915935 29L72.0915935 33.3965517 70.9673777 34.5 72.0915935 35.6034483 72.0915935 40 69.8519448 40 69.8519448 35.6034483 67.6122961 35.6034483 67.6122961 40 65.3726474 40 65.3726474 29 67.6122961 29 67.6122961 33.3965517 69.8519448 33.3965517 69.8519448 29 72.0915935 29zM81.0326223 29L81.0326223 35.5948276 76.5708908 35.5948276 76.5708908 37.7931034 81.0326223 37.7931034 81.0326223 39.9913793 74.3312422 39.9913793 74.3312422 29 81.0326223 29zM78.7929737 33.3965517L78.7929737 31.1982759 76.5708908 31.1982759 76.5708908 33.3965517 78.7929737 33.3965517zM54.1656211 29L54.1656211 39.9913793 47.446675 39.9913793 47.446675 29 54.1656211 29zM51.9259724 31.1982759L49.6863237 31.1982759 49.6863237 37.7931034 51.9259724 37.7931034 51.9259724 31.1982759zM34 29L34 39.9913793 36.2396487 39.9913793 36.2396487 31.1982759 38.4792974 31.1982759 38.4792974 39.9913793 40.718946 39.9913793 40.718946 31.1982759 42.9585947 31.1982759 42.9585947 39.9913793 45.1982434 39.9913793 45.1982434 29 34 29zM56.4052698 29L56.4052698 39.9913793 58.6449184 39.9913793 58.6449184 31.1982759 60.8845671 31.1982759 60.8845671 39.9913793 63.1242158 39.9913793 63.1242158 29 56.4052698 29zM87.7603513 29L87.7603513 33.3965517 85.5207026 33.3965517 85.5207026 29 83.281054 29 83.281054 35.5948276 85.5207026 35.5948276 85.5207026 39.9913793 87.7603513 39.9913793 87.7603513 35.5948276 90 35.5948276 90 29 87.7603513 29zM21.2625 17.03625L21.3675 17.535C23.2225 18.27 24.64875 19.5825 25.73375 21.3675 27.11625 21.4725 28.4375 21.21 29.61875 20.65 30.4325 19.67 31.05375 18.54125 31.43875 17.4825 29.39125 16.61625 22.84625 16.59875 21.2625 17.03625zM26.92375 17.78875L26.41625 18.10375C26.565 18.31375 26.81875 18.45375 27.09875 18.45375 27.4925 18.45375 27.825 18.1825 27.9125 17.815 28.21 17.8325 28.49875 17.85875 28.77 17.885 28.56875 19.48625 26.38125 19.8975 25.2875 17.8675 25.73375 17.80625 26.92375 17.78875 26.92375 17.78875zM20.83375 22.86375C21.9625 22.86375 23.1175 22.96875 24.19375 23.205 23.87875 21.48125 23.05625 19.99375 20.83375 22.86375zM19.53 17.19375C17.605 16.6075 12.4075 16.61625 10.03625 17.6225 10.29 18.4975 10.66625 19.4425 11.13875 20.22125 12.075 20.825 13.265 21.35 14.56875 21.30625 15.7325 19.69625 17.29 18.41875 19.34625 17.7625L19.53 17.19375zM12.03125 18.10375C12.53 17.9375 13.57125 17.80625 13.57125 17.80625L13.1775 18.1475C13.335 18.33125 13.5625 18.45375 13.825 18.45375 14.245 18.45375 14.595 18.1475 14.65625 17.745 15.05 17.7275 15.435 17.71875 15.79375 17.7275 15.07625 19.6875 12.9325 19.81 12.03125 18.10375zM16.52875 23.42375C17.4125 23.17875 18.50625 22.995 19.6875 22.9075 18.025 20.545 16.66875 20.78125 16.52875 23.42375z"/>
  <path d="M41.3,11.66375 C38.45625,11.24375 34.965,12.24125 33.10125,13.02875 C32.47125,11.97 31.31625,10.64875 30.3275,9.66875 C28.98875,9.03875 26.53875,8.42625 25.2875,8.07625 C24.5525,7.02625 23.96625,5.95875 23.7125,4.83875 C24.03625,3.92 24.57,3.0975 25.01625,2.4675 C23.94,2.8 22.7675,3.59625 21.91875,4.29625 C21.49875,5.39 21.20125,6.1075 21.105,6.95625 C20.29125,6.50125 19.64375,5.88 19.20625,5.03125 C19.22375,3.87625 19.60875,2.7125 20.055,1.715 C20.6675,1.40875 21.39375,1.1375 22.18125,0.9625 C22.18125,0.9625 20.71125,0.53375 19.73125,0.6125 C18.0425,1.72375 16.72125,3.3775 15.995,4.83875 C16.415,6.86 17.2025,8.96 17.2025,8.96 C17.2025,8.96 16.2225,8.67125 15.645,8.04125 C11.9175,9.1875 9.2925,11.62 7.14,13.4225 C5.25875,12.85375 2.5725,12.71375 0.805,12.8625 C-0.7525,17.26375 2.35375,23.12625 4.515,25.57625 C6.25625,24.92 7.35875,23.9575 8.085,23.24 C8.19,23.485 8.30375,23.72125 8.42625,23.9575 C8.79375,24.80625 8.8025,26.69625 8.8025,26.69625 C8.8025,26.69625 10.24625,26.285 10.8325,25.935 C9.975,29.02375 9.7125,33.1275 10.14125,35.72625 C11.585,37.59 13.8075,40.57375 15.21625,41.755 C18.585,42 22.8725,41.93 25.7775,40.92375 C27.5275,39.1125 29.68,35.9975 30.7475,33.81 C30.63375,30.82625 29.56625,26.81875 29.18125,25.235 C29.9775,25.82125 32.235,26.6875 32.235,26.6875 C32.235,26.6875 32.08625,24.2375 32.94375,23.14375 L37.7825,24.14125 C40.4075,21.6825 42.37625,16.17 41.3,11.66375 Z M5.15375,23.485 C3.5,21.69125 1.7325,18.2875 1.77625,14.945 C3.36875,14.86625 5.075,15.04125 6.29125,15.19 C6.29125,15.5225 6.3,15.86375 6.32625,16.2225 L2.9225,16.07375 C2.96625,16.765 3.29875,17.3425 3.78875,17.82375 L6.50125,17.815 C6.7025,19.11875 7.04375,20.50125 7.51625,21.8225 C6.90375,22.3475 6.06375,22.96875 5.15375,23.485 Z M29.30375,23.70375 C28.48125,23.28375 27.5975,22.89 26.38125,22.715 C27.9125,25.83 28.595,29.6275 28.8225,32.5325 C27.965,35.2625 26.27625,37.975 24.815,39.38375 C22.35625,39.795 18.3225,39.90875 15.9775,39.78625 C14.6475,38.47375 13.02875,36.4875 11.90875,34.78125 C12.3725,35.035 13.46625,35.62125 14.11375,35.91 C17.2375,36.28625 19.32875,36.155 21.2975,35.48125 C22.3475,34.57125 23.2225,33.48625 23.695,32.69875 C19.66125,34.67625 15.715,35.02625 11.62,32.4275 C11.585,29.32125 12.11875,25.7075 13.65875,22.77625 C12.48625,22.7675 11.2875,23.2225 10.33375,23.66875 C8.8025,21.53375 8.12875,17.92 7.875,15.365 C9.1525,14.25375 11.15625,12.5475 13.81625,11.59375 C15.9775,12.38125 18.1825,14.04375 19.81,15.715 C21.20125,14.21 25.165,11.34875 28.46375,11.2 C30.73,12.9675 32.75125,15.79375 33.6875,18.08625 C32.99625,19.67875 31.61375,22.25125 29.30375,23.70375 Z M37.87875,21.7 C36.4175,21.86625 34.93875,21.7875 33.71375,21.5775 C34.57125,20.16 35.23625,18.6725 35.51625,17.43 L38.19375,16.205 C38.325,15.72375 38.54375,15.25125 38.7975,14.76125 L35.035,15.7675 L34.32625,14.74375 C35.79625,14.315 38.01875,13.93 39.75125,13.78125 C39.80375,16.0125 39.47125,19.18 37.87875,21.7 Z"/>
</svg>
